<?xml version="1.0" standalone="no"?>
<!DOCTYPE svg PUBLIC "-//W3C//DTD SVG 20010904//EN"
 "http://www.w3.org/TR/2001/REC-SVG-20010904/DTD/svg10.dtd">
<svg version="1.0" xmlns="http://www.w3.org/2000/svg"
 width="269.000000pt" height="269.000000pt" viewBox="0 0 269.000000 269.000000"
 preserveAspectRatio="xMidYMid meet">
<metadata>
Created by potrace 1.14, written by Peter Selinger 2001-2017
</metadata>
<g transform="translate(0.000000,269.000000) scale(0.100000,-0.100000)"
fill="#000000" stroke="none">
<path d="M1264 2551 c-2 -2 -25 -5 -51 -7 -111 -7 -249 -38 -328 -74 -11 -5
-27 -11 -35 -12 -8 -2 -17 -5 -20 -8 -3 -3 -27 -16 -55 -30 -98 -48 -245 -146
-245 -162 0 -4 -7 -8 -16 -8 -8 0 -12 -4 -9 -10 3 -5 2 -10 -2 -10 -12 0 -91
-77 -123 -119 -14 -18 -30 -38 -35 -44 -44 -49 -165 -264 -165 -293 0 -8 -5
-14 -12 -14 -6 0 -9 -3 -5 -6 3 -4 0 -23 -8 -43 -18 -45 -42 -140 -52 -206
-10 -65 -9 -327 1 -385 47 -264 167 -493 350 -675 75 -75 160 -145 175 -145 6
0 11 -4 11 -10 0 -5 11 -12 25 -16 14 -3 25 -9 25 -13 0 -12 163 -89 240 -114
140 -46 219 -59 380 -62 171 -3 336 24 455 75 25 11 45 16 45 12 0 -4 4 -2 8
3 4 6 27 19 52 30 82 35 238 145 323 228 168 164 279 354 337 574 29 111 35
163 34 308 0 132 -8 226 -24 280 -37 122 -57 179 -86 243 -36 78 -127 222
-171 269 -16 17 -42 46 -59 64 -17 19 -54 54 -83 79 -29 25 -59 51 -66 58 -8
6 -17 12 -21 12 -4 0 -15 7 -25 16 -19 17 -64 44 -119 72 -19 9 -38 22 -42 27
-4 6 -8 7 -8 2 0 -4 -17 2 -37 13 -21 11 -41 20 -45 20 -4 0 -19 5 -35 12 -15
6 -39 13 -53 15 -13 2 -30 9 -37 15 -7 6 -13 8 -13 5 0 -3 -17 -1 -37 5 -84
21 -326 42 -339 29z"/>
</g>
</svg>
