<?xml version="1.0" standalone="no"?>
<!DOCTYPE svg PUBLIC "-//W3C//DTD SVG 20010904//EN"
 "http://www.w3.org/TR/2001/REC-SVG-20010904/DTD/svg10.dtd">
<svg version="1.0" xmlns="http://www.w3.org/2000/svg"
 width="1280.000000pt" height="640.000000pt" viewBox="0 0 1280.000000 640.000000"
 preserveAspectRatio="xMidYMid meet">
<metadata>
Created by potrace 1.15, written by Peter Selinger 2001-2017
</metadata>
<g transform="translate(0.000000,640.000000) scale(0.100000,-0.100000)"
fill="#3bb34b" stroke="none">
<path d="M7750 5644 c-75 -20 -128 -53 -218 -136 -42 -38 -111 -89 -152 -111
-104 -57 -161 -113 -210 -208 -22 -43 -65 -105 -94 -136 -59 -65 -80 -100 -90
-155 -9 -52 10 -149 45 -226 61 -136 59 -156 -24 -266 -30 -40 -52 -83 -67
-133 -18 -62 -33 -86 -85 -146 -34 -40 -70 -87 -79 -106 -26 -50 -30 -126 -12
-204 9 -38 16 -77 16 -87 0 -31 -46 -76 -97 -94 -135 -49 -171 -74 -233 -166
-21 -31 -59 -81 -85 -111 -46 -53 -85 -120 -100 -169 -4 -14 -23 -60 -42 -103
-19 -42 -32 -81 -29 -85 10 -17 -84 -52 -138 -52 -107 0 -355 68 -387 106 -23
27 -57 13 -185 -78 -1331 -945 -2424 -1467 -4244 -2026 -260 -80 -435 -132
-864 -256 -198 -56 -361 -107 -363 -112 -2 -5 2593 -9 6387 -9 3515 0 6390 2
6390 5 0 3 -125 29 -277 58 -1860 353 -2917 751 -4668 1759 -363 210 -1072
637 -1100 664 -5 6 -5 9 3 9 7 0 30 18 52 40 57 57 103 77 195 84 182 15 312
60 431 149 78 58 105 71 199 101 91 29 131 58 184 134 23 32 55 66 71 76 17 9
80 26 140 37 124 22 188 44 263 93 140 90 267 282 302 456 31 153 43 161 194
139 120 -17 240 -15 323 5 34 9 114 42 177 74 l115 57 205 6 c309 10 368 32
486 179 46 58 64 72 112 90 37 14 83 22 128 23 63 1 79 -3 160 -41 50 -24 114
-46 143 -51 133 -21 249 44 305 168 32 70 29 179 -6 254 -50 109 -177 205
-322 242 -43 11 -106 15 -225 14 l-165 -1 -101 41 c-147 59 -220 74 -334 68
-72 -4 -117 -13 -182 -36 -53 -19 -108 -31 -137 -31 -61 0 -181 42 -236 82
-22 16 -65 47 -95 69 -153 112 -348 90 -557 -62 -112 -82 -144 -94 -202 -79
-25 6 -113 49 -196 95 -82 46 -174 90 -204 99 -67 20 -148 19 -221 0z"/>
</g>
</svg>
